<?xml version="1.0" encoding="utf-8"?>
<!-- Generator: Adobe Illustrator 27.5.0, SVG Export Plug-In . SVG Version: 6.00 Build 0)  -->
<svg version="1.1" id="Layer_1" xmlns="http://www.w3.org/2000/svg" xmlns:xlink="http://www.w3.org/1999/xlink" x="0px" y="0px"
	 viewBox="0 0 512 512" style="enable-background:new 0 0 512 512;" xml:space="preserve">
<style type="text/css">
	.st0{fill:#607A64;}
	.st1{fill:#FFFFFF;}
</style>
<path class="st0" d="M255.9,500.6L255.9,500.6c-135.4,0-245.1-109.7-245.1-245.1v0c0-135.4,109.7-245.1,245.1-245.1h0
	C391.3,10.4,501,120.1,501,255.5v0C501,390.9,391.3,500.6,255.9,500.6z"/>
<path class="st1" d="M332.7,86.3C324.6,77.2,313,72,300.8,72H198.5l102,114.3l-58.9,66.8l-68.9-76c-8.1-8.9-19.5-14-31.6-14H38.6
	l83.8,92.3l-83.8,92.3h102.5c12,0,23.5-5.1,31.6-14l69.6-76.7l58.9,66.8L198.5,439h102.3c12.2,0,23.7-5.2,31.8-14.3l150.6-169.1
	L332.7,86.3z M399.9,276c-14.7,0-26.6-11.9-26.6-26.6c0-14.7,11.9-26.6,26.6-26.6c6.5,0,12.5,2.3,17.1,6.2l-12.7,13.8l18.5,20.1
	C418.2,270.7,409.7,276,399.9,276z"/>
</svg>
